<?xml version="1.0" encoding="UTF-8"?>
<svg id="Layer_1" xmlns="http://www.w3.org/2000/svg" version="1.1" viewBox="0 0 612 792">
  <!-- Generator: Adobe Illustrator 29.2.1, SVG Export Plug-In . SVG Version: 2.1.0 Build 116)  -->
  <defs>
    <style>
      .st0 {
        fill: #96c2ac;
      }

      .st1 {
        fill: #4965af;
      }

      .st2 {
        fill: #c5bede;
      }

      .st3 {
        fill: #fefefe;
      }

      .st4 {
        fill: #bfdbf2;
      }

      .st5 {
        fill: #fab444;
      }

      .st6 {
        fill: #5f75b9;
      }

      .st7 {
        fill: #fac970;
      }

      .st8 {
        fill: #ef9b22;
      }

      .st9 {
        fill: #ee4485;
      }

      .st10 {
        fill: #333458;
      }

      .st11 {
        fill: #53548e;
      }

      .st12 {
        fill: #f06ca3;
      }

      .st13 {
        fill: #35917d;
      }
    </style>
  </defs>
  <polygon class="st3" points="534.4 135.2 437.4 257.2 508.4 310.1 615 174.7 549.6 137 534.4 135.2"/>
  <path class="st12" d="M697.7,749.6c-.6-3.4-5.1,1-6.4,1.8-165.3,108.4-359-86.1-250.4-250.4.8-1.2,5.1-5.8,1.8-6.4,8.7-7.3,19.1-16.2,28.9-21.7,10.8-6,37.2-17.3,48.8-19.9,170.2-38.2,292.8,162.5,177.2,296.5ZM598.2,594.1v-60.6c0-.3-2.8-3.2-3.6-3.6-3.6-1.7-61.4-1.7-65,0-.9.4-3.6,3.3-3.6,3.6v60.6h-60.6c-.3,0-3.2,2.8-3.6,3.6-1.7,3.6-1.7,61.4,0,65,.4.9,3.3,3.6,3.6,3.6h60.6v60.6c0,.3,2.8,3.2,3.6,3.6,3.6,1.7,61.4,1.7,65,0,.9-.4,3.6-3.3,3.6-3.6v-60.6h60.6c.3,0,3.2-2.8,3.6-3.6,1.7-3.6,1.7-61.4,0-65-.4-.9-3.3-3.6-3.6-3.6h-60.6Z"/>
  <path class="st11" d="M5.1,66.1c-.5,11.7,4.9,36.2,7.2,48.8-32.3,9.6-82.9.2-86.6,45.9L27.3,744.6c5.8,21.2,21.7,31.5,43.8,28.5,98-16.9,195.8-34.4,293.9-50.6.6,0,1.2,0,1.8,0,5.6,16.8,16.5,31.3,27.1,45.2l-329.9,57.9c-40.6,3.4-77.9-25-85.4-64.8-33.2-204.9-75.3-408.9-103.7-614.3,3.9-33.5,26.7-60.5,59.4-69,22.2-5.8,48.1-8.1,70.9-11.4Z"/>
  <path class="st5" d="M281.8,15.5c4.8,10,7,38.1,9,50.6,1.9,11.7,11.4,40.6,2.8,48.9-5.3,5.2-53.1,12.3-64.3,14.4l-56.7-3.8c-48.5-6.6-107-35.3-135.7-75.9-2.3-3.3-5.1-6.2-4.7-10.7,13.9-3.3,27.7-4.7,41.6-7.2,31.3-5.8,62.9-11.4,94-18.1,8.8-1.9,19.1-2,28.9-3.6,15.4-2.6,44.9-11.1,58.6-10.7,8.9.3,22.5,8,26.4,16.1ZM234.3,26.8c-37.6,4.9-35.3,34.9,8.1,28,33.1-5.3,28.2-32.8-8.1-28ZM174.6,35.7c-16.6,3.6-10.9,30.5,6.3,28.2,19.4-2.5,15-32.9-6.3-28.2Z"/>
  <path class="st11" d="M448.1,245.1c-3.8,4.9-9.6,10.4-12.7,14.5l-31.2-177.6c-3.2-16.6-20-28.9-36.6-28.7-23.3.3-52.6,12.6-76.9,12.8-2-12.5-4.2-40.7-9-50.6,44.2-.9,91.8-27.2,133.7-2.6,20.3,11.9,31.6,30.7,37.2,53.2,11.2,45,14.3,94.7,24.6,140.2-6.9,13.7-19.4,26.3-29.1,38.9Z"/>
  <path class="st9" d="M697.7,749.6c-66.4,77.1-186.3,82.7-260.4,12.7-11.5-10.8-29-33.1-36.2-47-29.3-56.4-26.2-122.8,5.4-177.2,2.2-3.8,5.5-12,7.2-14.5,2.2-3.2,14.1-15.8,18.1-19.9,2.9-3,7.6-6.3,10.8-9,3.4.6-1,5.1-1.8,6.4-108.7,164.3,85.1,358.8,250.4,250.4,1.2-.8,5.8-5.1,6.4-1.8Z"/>
  <path class="st8" d="M32.2,39c-.4,4.5,2.4,7.4,4.7,10.7,28.7,40.6,87.2,69.3,135.7,75.9l56.7,3.8c-65.1,12.1-130.8,22.1-196,33.8-2.8-.8-6.8-1.6-9.1-3.2-5.9-4.2-10.3-35.9-12-45-2.4-12.6-7.7-37.1-7.2-48.8.5-10.5,7.8-22.7,18.1-26.3,3.5-1.2,6.6-.2,9.1-.8Z"/>
  <path class="st6" d="M587.4,190.9c-.4-.3-1.4.3-1.8,0-19.6-14.7-38.6-30.4-57.4-46.1,7.5-15.9,82.4-99.3,82.7-107.6h1.8c7.8,53.4-5.3,104.7-25.3,153.7Z"/>
  <path class="st1" d="M681.4,91.4c-27.8,32.4-53.4,66.7-79.6,100.3-2.2,2.8-5.9,4.8-7.2,6.4-1.9-2.1-5.1-5.7-7.2-7.2,20-49,33.1-100.3,25.3-153.7,22.1,18.2,47.9,34.8,68.7,54.2Z"/>
  <path class="st11" d="M502.4,351.8c5,33.8,12.3,67.5,18.1,101.3-11.7,2.6-38.1,13.9-48.8,19.9-5.3-33.2-10.8-66.3-16.3-99.5,0-.6,0-1.2,0-1.8l47-19.9Z"/>
  <path class="st7" d="M196.8,10.1c-9.8,1.6-20.1,1.7-28.9,3.6-32.9,0-68.9-12-74.1-48.8,42.4-36.9,98.7-8.5,103.1,45.2Z"/>
  <path class="st11" d="M621.7,24.5c0,4,6.3,7.5,9.2,9.8,19.4,15.1,40.7,29.3,59.5,44.5,29.5,23.8,26.5,45.5,6.1,73.9-14.7,20.6-68.6,79-71.1,98.9-1.4,11.1,7.5,27.6-6.2,29.3-11.4-1-9.3-29.8-7.6-37.7,6.1-29.3,67.7-83.1,82.2-113.1,7.9-18.2,0-27-12.5-38.7-20.8-19.5-46.6-36-68.7-54.2h-1.8c0-2.2-4.1-5.4-.2-10.1,2.6-4,8.6-1.7,11-2.5Z"/>
  <path class="st6" d="M498.8,326.5c-5.1-.3-6.7,5.5-9,7.2l-70.5-48.8c1.4-4.2,13-20.9,16.3-25.3,3-4,8.9-9.6,12.7-14.5,0,3.6,2.2,5.1,4.5,7.2,18.2,16.6,41.6,30.1,59.7,47.1,3.4,7.5-13.1,16.3-13.6,27.1Z"/>
  <path class="st6" d="M656.1,4.6c.2.1-.3,2.4,1.3,3.6,8.8,6.1,38.5,26.6,43.9,32.6.3.4,4.1,8.6,4.3,9.4,2.8,11-10.7,19.5-15.1,28.5-18.8-15.2-40.1-29.4-59.5-44.5-2.9-2.3-9.3-5.8-9.2-9.8,2.5-.9,11.6-17.3,18.5-20.3,3.6-1.6,12.9-1.4,15.8.4Z"/>
  <path class="st11" d="M701.3,40.8c-5.4-5.9-35.1-26.4-43.9-32.6-1.7-1.2-1.1-3.5-1.3-3.6,12.9-19.6,33.9-46.6,58.8-25.3,23,19.6.7,45.5-13.6,61.5Z"/>
  <path class="st8" d="M93.7-35.1C99,1.7,135,13.6,167.9,13.7c-31.1,6.7-62.7,12.3-94,18.1-2.9-22.9-2.6-45,13.7-63.2,2.9-3.2,5.4-2.9,6.2-3.7Z"/>
  <path class="st10" d="M437.3,762.3l-43.4,5.4c-10.6-13.9-21.5-28.4-27.1-45.2,11.3-1.9,23.2-4.3,34.4-7.2,7.2,13.9,24.7,36.2,36.2,47Z"/>
  <path class="st10" d="M498.8,326.5c-.3,6.4,2.6,18.1,3.6,25.3l-47,19.9c-.9-5.7-3.3-12.1-3.6-18.1,11.1-5.4,28.7-12.7,38-19.9,2.3-1.8,3.9-7.6,9-7.2Z"/>
  <path class="st2" d="M594.6,198.1c-.6.8-.8,4.6-2.8,7.1-12.4,15.9-25.3,31.5-37.9,47.1,4.4-11.2,12.2-21.5,18.1-32.5,5-9.3,9.9-19.1,13.5-29,.4.3,1.4-.3,1.8,0,2.1,1.5,5.3,5.1,7.2,7.2Z"/>
  <path class="st3" d="M435.5,259.6c-3.3,4.4-14.9,21.1-16.3,25.3-6,18.2-9.9,48.3-14,68.3-.5,2.5-.2,9-.5,9.4-.1.2-2.9.1-4.3,1.9-3.7,4.4-20.8,26-20.6,29.4.5,5.8,7.2,8.8,12.3,5.7,2.7-1.7,15.6-20.6,19.9-25.4s1.5-4.2,1.8-4.5,3.8-.8,5.4-1.8c1,13.6-21.6,27.3-24.6,37.9-1.1,3.7,1.6,8.9,5.7,9.2,9,.8,21.9-25,29.1-30.6,5.5-4.2,18.8-9.5,26-11.1,5.5,33.1,11,66.3,16.3,99.5-9.9,5.5-20.2,14.4-28.9,21.7-3.3,2.8-8,6.1-10.8,9-7.4,3.8-18.7,9.8-21.7,18.1-1.2,0-2.4,0-3.6,0-103.4,22.2-211.9,32.4-315,54.8-11.2,2.4-16,6.3-5.6,15.4,97.7-14.9,195.1-34.3,292.8-50.1,3.3-.5,6.8.2,9.7-.2-27.9,42.1-41.7,87.2-34.1,138.1,2.2,15,8.4,28,10.6,42.7-98,16.2-195.9,33.7-293.9,50.6-22.1,3-38-7.3-43.8-28.5L-74.2,160.8c3.7-45.7,54.3-36.3,86.6-45.9,1.7,9.1,6,40.8,12,45,2.3,1.6,6.3,2.5,9.1,3.2,65.2-11.7,130.8-21.6,196-33.8,11.2-2.1,59-9.2,64.3-14.4,8.6-8.3-.9-37.2-2.8-48.9,24.2-.2,53.5-12.5,76.9-12.8,16.5-.2,33.4,12.1,36.6,28.7l31.2,177.6ZM133.5,411.5c56.4,39.1,125.9,28.4,166.4-27.1,75-102.9-28.4-232.6-144.1-186.6-90.2,35.9-102.2,158.2-22.3,213.7ZM66.9,517.9l9.4,1.9c103.6-24.3,219.2-29.2,321.6-54.7,5.3-1.3,13.1-1.7,12.4-9.3-.9-5.1-5.1-7.1-9.9-6.5-106,22.5-217.8,31.9-323.2,54.9-9.7,2.1-12.2,1.7-10.2,13.6ZM254.2,625.4c-47.8,5.1-97.9,20.2-146.2,25.6-8.3,1.5-12.8,8.7-5.3,14.6l161.3-26.8c11.8-9.9,2.2-14.8-9.9-13.5Z"/>
  <path class="st3" d="M598.2,594.1h60.6c.3,0,3.2,2.8,3.6,3.6,1.7,3.7,1.7,61.4,0,65s-3.3,3.6-3.6,3.6h-60.6v60.6c0,.3-2.8,3.2-3.6,3.6-3.7,1.7-61.4,1.7-65,0-.9-.4-3.6-3.3-3.6-3.6v-60.6h-60.6c-.3,0-3.2-2.8-3.6-3.6-1.7-3.7-1.7-61.4,0-65,.4-.9,3.3-3.6,3.6-3.6h60.6v-60.6c0-.3,2.8-3.2,3.6-3.6,3.7-1.7,61.4-1.7,65,0,.9.4,3.6,3.3,3.6,3.6v60.6Z"/>
  <path class="st2" d="M406.5,538.1c-31.6,54.4-34.7,120.8-5.4,177.2-11.1,2.9-23,5.4-34.4,7.2-.6,0-1.2,0-1.8,0-2.2-14.7-8.4-27.8-10.6-42.7-7.6-50.9,6.2-96,34.1-138.1,2.6-.4,8.2-3.2,10.8-3.6,2.2-.4,4.9.3,7.2,0Z"/>
  <path class="st7" d="M234.3,26.8c36.4-4.8,41.2,22.8,8.1,28-43.4,6.9-45.8-23.1-8.1-28Z"/>
  <path class="st7" d="M174.6,35.7c21.4-4.6,25.7,25.8,6.3,28.2-17.2,2.2-23-24.7-6.3-28.2Z"/>
  <path class="st10" d="M410.2,521.8c1.5,0,3.1.1,3.6,1.8-1.7,2.5-5,10.7-7.2,14.5-2.3.3-5.1-.4-7.2,0-14.5,1,6.7-12.4,7.2-16.3,1.2,0,2.4,0,3.6,0Z"/>
  <path class="st2" d="M431.9,503.7c-4,4.1-15.9,16.7-18.1,19.9-.5-1.7-2.1-1.8-3.6-1.8,3-8.3,14.2-14.3,21.7-18.1Z"/>
  <path class="st2" d="M451.7,353.6c.3,6,2.7,12.4,3.6,18.1,0,.6,0,1.2,0,1.8-7.1,1.6-20.5,6.9-26,11.1-7.2,5.6-20.1,31.5-29.1,30.6-4-.4-6.7-5.5-5.7-9.2,3-10.6,25.6-24.3,24.6-37.9,10.6-6.3,22.2-9.4,32.5-14.5Z"/>
  <path class="st1" d="M489.7,333.7c-9.3,7.2-26.8,14.5-38,19.9-10.4,5-21.9,8.1-32.5,14.5-1.6,1-5.2,1.6-5.4,1.8-2-3.5-4.7-7-9-7.2.3-.4,0-6.9.5-9.4,4.1-20,8-50.1,14-68.3l70.5,48.8Z"/>
  <path class="st0" d="M299.9,384.4c-20.3-24.7-50.4-41.1-83.2-38l18.1-11.7c25.7-22.5,20.7-66.9-9.9-82.3-43.8-22.1-90.4,21.3-70,66.4,9,19.9,21.4,22.9,40.1,28.6,1.7.5,4.1.3,3.6,2.7-30.3,5.3-56.9,32.2-65.1,61.5-79.9-55.5-67.9-177.8,22.3-213.7,115.7-46.1,219.1,83.6,144.1,186.6Z"/>
  <path class="st13" d="M133.5,411.5c8.2-29.3,34.7-56.2,65.1-61.5.5-2.3-1.9-2.2-3.6-2.7-18.8-5.7-31.1-8.7-40.1-28.6-20.4-45.1,26.2-88.5,70-66.4,30.6,15.4,35.6,59.8,9.9,82.3l-18.1,11.7c32.8-3.1,62.9,13.2,83.2,38-40.4,55.5-110,66.2-166.4,27.1Z"/>
  <path class="st11" d="M66.9,517.9c-1.9-11.9.5-11.5,10.2-13.6,105.5-23,217.3-32.4,323.2-54.9,4.8-.6,9,1.4,9.9,6.5.7,7.7-7,8-12.4,9.3-102.4,25.4-218,30.3-321.6,54.7l-9.4-1.9Z"/>
  <path class="st11" d="M406.5,521.8c-.6,3.9-21.7,17.3-7.2,16.3-2.6.5-8.3,3.2-10.8,3.6-2.8.5-6.3-.3-9.7.2-97.7,15.9-195.1,35.2-292.8,50.1-10.4-9.1-5.6-13,5.6-15.4,103.1-22.4,211.5-32.6,315-54.8Z"/>
  <path class="st11" d="M254.2,625.4c12.1-1.3,21.7,3.6,9.9,13.5l-161.3,26.8c-7.5-6-3-13.1,5.3-14.6,48.2-5.4,98.3-20.5,146.2-25.6Z"/>
  <path class="st4" d="M404.7,362.7c4.3.3,7.1,3.8,9,7.2-.3.3-.4,3-1.8,4.5-4.3,4.7-17.2,23.7-19.9,25.4-5.1,3.1-11.8.1-12.3-5.7-.3-3.4,16.9-25,20.6-29.4,1.5-1.8,4.2-1.7,4.3-1.9Z"/>
</svg>